<svg width="24" height="24" viewBox="0 0 100 100" xmlns="http://www.w3.org/2000/svg">
  <circle fill="#000000" cx="50" cy="50" r="50"/>
  <path fill="#FFFFFF" d="M63.4,30.9c-6.6,0-12.5,3.4-17.6,10.1c-1.8-3.9-4.9-6.7-10-6.7c-5.7,0-9.4,4.2-9.4,9.2c0,4.5,2.6,7.6,6.7,10.3 l6.9,4.6c3.3,2.2,4.5,3.6,4.5,6.1c0,2.4-1.6,3.9-4.2,3.9c-3.7,0-5.7-2.6-6.2-6.6l-5.6,0.6c0.6,6.6,5,11.7,12.2,11.7 c7.1,0,11.4-4.5,11.4-10.1c0-4.9-2.6-7.9-8-11.5l-6.5-4.3c-2.8-1.8-3.6-3.3-3.6-5.1c0-1.9,1.2-3.6,3.7-3.6c3.4,0,4.9,3.1,5.4,6.1 l5.6-1C56.9,38.2,60.1,30.9,63.4,30.9z"/>
</svg>
