<svg width="24" height="24" viewBox="0 0 512 512" xmlns="http://www.w3.org/2000/svg">
  <path fill="#87BA45" d="M256 0C114.62 0 0 114.62 0 256s114.62 256 256 256 256-114.62 256-256S397.38 0 256 0zm0 472c-119.1 0-216-96.9-216-216 0-48.9 16.8-94 44.9-130.2 2.1 3.6 24.1 41.4 61.1 52.6 33.3 10.1 64.6-3.3 80.3-17.6 2.6 32.6 10.9 62.3 31.1 89.2 17.2 23.3 40.4 38.5 65.2 49.8-4.2 6.6-17.3 24.1-47.3 32.6-29.3 8.3-58.7 4.6-79.3-3.2-29.5-11.1-54.8-33.6-67.7-50.5 1.1 36.6 20.5 68.3 52.7 90.8 26.6 18.5 59.4 28.4 93.2 28.4 33.3 0 65.5-9.5 92.2-26.9C399 433.6 332.2 472 256 472z"/>
</svg>